<?xml version="1.0" encoding="utf-8"?>
<!-- Generator: Adobe Illustrator 22.0.0, SVG Export Plug-In . SVG Version: 6.00 Build 0)  -->
<svg version="1.1" id="Laag_1" xmlns="http://www.w3.org/2000/svg" xmlns:xlink="http://www.w3.org/1999/xlink" x="0px" y="0px"
	 viewBox="0 0 227.2 60" style="enable-background:new 0 0 227.2 60;" xml:space="preserve">
<style type="text/css">
	.st0{fill:#444D4D;}
	.st1{fill:#8F9594;}
	.st2{fill:#49A1DB;}
	.st3{fill:#A64D8A;}
	.st4{fill:#EDEEEB;}
	.st5{fill:#8CCFE7;}
</style>
<path class="st0" d="M77.1,43.6c-0.8-1.8-1.7-3.6-2.5-5.5c-0.8-1.9-1.6-3.8-2.3-5.7c-0.7-1.9-1.4-3.7-2-5.4
	c-0.6-1.7-1.1-3.2-1.6-4.6h5.2c0.4,1.2,0.8,2.5,1.3,3.9c0.5,1.4,1,2.8,1.5,4.2c0.5,1.4,1,2.7,1.4,4c0.5,1.3,0.9,2.4,1.3,3.3
	c0.4-0.9,0.8-2,1.3-3.3c0.5-1.3,1-2.6,1.5-4c0.5-1.4,1-2.8,1.5-4.2c0.5-1.4,0.9-2.7,1.3-4h5.1c-0.5,1.3-1,2.9-1.6,4.6
	c-0.6,1.7-1.3,3.5-2,5.4c-0.7,1.9-1.5,3.8-2.3,5.7c-0.8,1.9-1.6,3.7-2.5,5.5H77.1z"/>
<polygon class="st0" points="92.8,43.6 92.8,22.4 107.1,22.4 107.1,26.4 97.6,26.4 97.6,30.6 106,30.6 106,34.5 97.6,34.5 
	97.6,39.6 107.8,39.6 107.8,43.6 "/>
<path class="st0" d="M126.5,25.7c-0.7,0.7-1.4,1.5-2.3,2.6c-0.9,1.1-1.8,2.2-2.8,3.5c-1,1.3-1.9,2.6-2.8,3.9
	c-0.9,1.3-1.8,2.6-2.5,3.8h10.8v4h-16.6v-2.8c0.6-1,1.3-2.2,2.1-3.5c0.8-1.3,1.7-2.5,2.6-3.8c0.9-1.3,1.8-2.5,2.7-3.7
	c0.9-1.2,1.8-2.3,2.6-3.2h-9.5v-4h15.8V25.7z"/>
<path class="st1" d="M141.9,29.2c-0.9,2.7-1.7,5.2-2.6,7.6c-0.9,2.3-1.7,4.6-2.6,6.8h-3c-1.1-3.1-2-6.4-2.8-9.8
	c-0.8-3.5-1.6-7.2-2.3-11.3h3.1c0.3,1.6,0.6,3.2,0.9,4.8c0.3,1.6,0.6,3.1,0.9,4.6c0.3,1.5,0.6,2.9,1,4.3c0.3,1.4,0.7,2.6,1,3.8
	c0.8-2.1,1.7-4.5,2.6-7c0.9-2.5,1.8-5.2,2.6-7.9h2.6c0.8,2.7,1.7,5.4,2.6,7.9c0.9,2.6,1.8,4.9,2.6,7c0.3-1.1,0.7-2.4,1-3.7
	c0.3-1.4,0.6-2.8,1-4.3c0.3-1.5,0.6-3,0.9-4.6c0.3-1.6,0.6-3.2,0.9-4.8h3c-0.7,4.1-1.5,7.8-2.3,11.3c-0.8,3.5-1.8,6.7-2.8,9.8h-3
	c-0.9-2.2-1.8-4.4-2.6-6.8C143.6,34.5,142.8,32,141.9,29.2"/>
<path class="st1" d="M157.3,33c0-1.8,0.3-3.4,0.8-4.8c0.5-1.4,1.3-2.5,2.2-3.5c0.9-0.9,2-1.6,3.2-2.1c1.2-0.5,2.5-0.7,3.9-0.7
	c1.4,0,2.6,0.2,3.9,0.7c1.2,0.5,2.3,1.2,3.2,2.1s1.6,2.1,2.2,3.5c0.5,1.4,0.8,3,0.8,4.8c0,1.8-0.3,3.4-0.8,4.8
	c-0.5,1.4-1.3,2.5-2.2,3.5s-2,1.6-3.2,2.1c-1.2,0.5-2.5,0.7-3.9,0.7c-1.4,0-2.7-0.2-3.9-0.7c-1.2-0.5-2.3-1.2-3.2-2.1
	c-0.9-0.9-1.7-2.1-2.2-3.5C157.6,36.4,157.3,34.8,157.3,33 M160.5,33c0,1.3,0.2,2.4,0.5,3.5c0.3,1,0.8,1.9,1.4,2.7
	c0.6,0.7,1.3,1.3,2.2,1.7c0.9,0.4,1.8,0.6,2.9,0.6c1.1,0,2-0.2,2.9-0.6c0.9-0.4,1.6-1,2.2-1.7c0.6-0.7,1.1-1.6,1.4-2.7
	c0.3-1,0.5-2.2,0.5-3.5c0-1.3-0.2-2.4-0.5-3.5c-0.3-1-0.8-1.9-1.4-2.7c-0.6-0.7-1.3-1.3-2.2-1.7c-0.9-0.4-1.8-0.6-2.9-0.6
	c-1.1,0-2,0.2-2.9,0.6c-0.9,0.4-1.6,1-2.2,1.7c-0.6,0.7-1.1,1.6-1.4,2.7C160.6,30.5,160.5,31.7,160.5,33"/>
<polygon class="st1" points="194.6,41 194.6,43.6 181.9,43.6 181.9,22.4 184.9,22.4 184.9,41 "/>
<polygon class="st1" points="210.4,41 210.4,43.6 197.7,43.6 197.7,22.4 200.7,22.4 200.7,41 "/>
<polygon class="st1" points="213.5,43.6 213.5,22.4 226.4,22.4 226.4,25 216.5,25 216.5,31.2 225.3,31.2 225.3,33.7 216.5,33.7 
	216.5,41 227.2,41 227.2,43.6 "/>
<path class="st2" d="M23.6,47.6c-5.6,1.7-12.2,3.3-15.8,5.2c-2.9,1.5-5.7,4.3-7.8,6.8V60h50.5C39.7,60,30.1,55.2,23.6,47.6"/>
<path class="st3" d="M17.5,37.7c-1.7-4.2-2.6-8.8-2.6-13.6c0-6.9,1.9-13.4,5.3-18.8C16.6,2,11.9,0,6.7,0C4.3,0,2.1,0.4,0,1.2v38.5
	c2.1,0.7,4.3,1.2,6.7,1.2C10.7,40.9,14.4,39.7,17.5,37.7"/>
<path class="st4" d="M18.2,39.2c-0.2-0.5-0.5-1-0.7-1.5c-3.1,2-6.9,3.2-10.8,3.2c-2.3,0-4.6-0.4-6.7-1.2v18.5v1.5
	c2.1-2.5,4.9-5.3,7.8-6.8c3.6-1.9,10.2-3.6,15.8-5.2C21.4,45.1,19.6,42.2,18.2,39.2"/>
<path class="st5" d="M35.3,24.7c0,1.3,0.2,2.6,0.5,3.9c0,0,0.1-0.1,0.1-0.1c2.2-2.3,4.6-3.3,6.3-3.3c2.9,0,4.6,2.2,4.6,2.2
	c0,0-2.4-0.3-4.5,3.8c-0.7,1.5-1.7,3-2.7,4.6l0,0v0c0,0,0,0,0,0c-2.8,4.4-4.3,5.6-6.9,7.5c-1.5,1.2-5.3,3-9.1,4.2
	C30.1,55.2,39.7,60,50.5,60c0.4,0,0.9,0,1.3,0V48.6v-7.2V8.1C42.7,8.1,35.3,15.5,35.3,24.7"/>
</svg>
